<svg xmlns="http://www.w3.org/2000/svg" xmlns:xlink="http://www.w3.org/1999/xlink" width="1280" zoomAndPan="magnify" viewBox="0 0 960 599.999999" height="800" preserveAspectRatio="xMidYMid meet" version="1.0"><defs><g/></defs><rect x="-96" width="1152" fill="#ffffff" y="-60" height="719.999999" fill-opacity="1"/><rect x="-96" width="1152" fill="#f8f5f0" y="-60" height="719.999999" fill-opacity="1"/><path fill="#414141" d="M 463.167969 314.726562 C 462.839844 313.636719 461.863281 312.839844 460.695312 312.769531 C 459.378906 312.691406 458.195312 313.554688 457.863281 314.828125 C 457.476562 316.261719 457.359375 317.683594 457.382812 319.09375 C 457.429688 321.808594 458.125 324.496094 458.164062 327.265625 C 458.167969 327.625 457.851562 327.945312 457.625 328.324219 C 457.128906 329.167969 456.550781 330.019531 456.128906 330.84375 C 455.769531 331.546875 455.519531 332.246094 455.390625 332.917969 C 455.128906 334.277344 455.0625 335.601562 455.097656 336.914062 C 455.164062 339.480469 455.707031 342 455.757812 344.707031 C 455.769531 345.0625 456.3125 350.480469 462.75 354.5625 C 465.917969 356.574219 470.664062 358.308594 477.75 358.691406 C 485.164062 359.050781 491.449219 357.632812 495.507812 354.761719 C 499.40625 352.003906 501.507812 348.019531 500.890625 342.882812 C 500.828125 342.339844 500.695312 341.835938 500.5 341.355469 C 500.074219 340.332031 499.125 339.554688 498.925781 338.40625 L 500.082031 336.175781 C 500.398438 335.492188 500.707031 334.578125 500.914062 333.640625 C 501.136719 332.652344 501.246094 331.632812 501.1875 330.824219 L 500.023438 325.308594 L 500.609375 321.8125 C 500.699219 320.710938 500.644531 319.15625 500.304688 317.621094 C 500.050781 316.484375 499.699219 315.359375 499.367188 314.429688 L 498.996094 313.425781 L 498.921875 313.230469 C 498.65625 312.550781 498.46875 312.132812 498.46875 312.132812 L 498.476562 311.734375 C 498.339844 310.554688 497.832031 309.734375 497.234375 309.714844 C 496.640625 309.695312 496.09375 310.484375 495.894531 311.648438 L 495.960938 314.144531 L 494.839844 313.941406 C 493.757812 316.316406 491.464844 317.070312 489.011719 318.613281 C 486.957031 319.910156 484.34375 320.769531 481.070312 321.046875 C 478.148438 321.292969 474.460938 320.667969 471.027344 319.4375 C 467.925781 318.324219 465.015625 316.734375 463.167969 314.726562 Z M 463.167969 314.726562 " fill-opacity="1" fill-rule="evenodd"/><path fill="#aa8453" d="M 496.703125 171.054688 L 487.894531 192.761719 L 495.238281 227.890625 C 495.617188 229.691406 494.597656 231.496094 492.859375 232.105469 C 492.859375 232.105469 451.726562 246.5 451.726562 246.5 L 443.890625 276.472656 C 446.414062 280.050781 448.378906 283.832031 449.976562 287.796875 C 451.472656 291.5 452.511719 295.398438 453.621094 299.398438 C 455.222656 305.1875 456.84375 311.1875 458.214844 317.617188 L 458.214844 317.605469 C 458.304688 318.1875 458.667969 318.71875 459.207031 319.027344 C 462.402344 321.0625 465.792969 323.078125 469.546875 324.410156 C 473.183594 325.707031 477.144531 326.335938 481.449219 325.992188 C 486.402344 325.609375 489.480469 324.605469 491.695312 323.21875 C 494.75 321.316406 496.1875 318.617188 498.496094 315.273438 C 500.054688 313.015625 501.042969 310.308594 501.871094 307.203125 C 503.222656 302.140625 504.199219 295.925781 506.03125 288.628906 C 506.941406 285.007812 508.027344 281.101562 509.679688 276.96875 C 511.4375 272.542969 515.171875 268.445312 519.25 263.773438 C 524.597656 257.652344 530.546875 250.691406 534.363281 241.4375 C 537.664062 233.4375 539.402344 223.742188 537.777344 211.40625 C 537.519531 209.460938 527.710938 218.1875 519.296875 217.324219 C 511.632812 216.535156 505.449219 206.167969 502.390625 204.328125 C 492.707031 198.511719 514.0625 179.894531 509.21875 177.761719 C 505.460938 176.109375 501.140625 173.394531 496.703125 171.054688 Z M 438.105469 269.582031 L 445.121094 242.753906 C 445.433594 241.574219 446.308594 240.621094 447.460938 240.21875 C 447.460938 240.21875 487.398438 226.242188 487.398438 226.242188 L 480.484375 193.167969 C 480.332031 192.453125 480.402344 191.710938 480.675781 191.035156 L 490.023438 168.003906 C 487.828125 167.207031 485.65625 166.679688 483.570312 166.59375 C 457.53125 165.503906 430.648438 178.503906 423.601562 204.289062 C 420.609375 215.191406 420.59375 227.667969 423.28125 239.527344 C 425.816406 250.703125 430.773438 261.335938 438.105469 269.582031 Z M 438.105469 269.582031 " fill-opacity="1" fill-rule="evenodd"/><path fill="#222222" d="M 483.640625 270.429688 C 482.6875 270.050781 481.820312 272.136719 482.792969 272.535156 C 483.578125 272.855469 484.402344 273.066406 485.242188 273.171875 C 484.433594 278.492188 483.785156 285.007812 483.507812 291.792969 C 483.0625 302.734375 483.554688 314.367188 485.496094 322.667969 C 485.652344 323.347656 486.332031 323.773438 487.011719 323.617188 C 487.691406 323.460938 488.117188 322.785156 487.960938 322.105469 C 486.144531 313.972656 485.890625 302.605469 486.34375 291.910156 C 486.632812 285.027344 487.207031 278.421875 487.9375 273.171875 C 490.070312 272.914062 492.160156 272.066406 493.851562 270.777344 C 497.023438 268.367188 498.808594 264.464844 497.148438 260.082031 C 496.355469 257.992188 494.933594 257.109375 493.347656 257.234375 C 491.910156 257.34375 490.113281 258.464844 488.390625 260.933594 C 487.46875 262.253906 486.472656 265.902344 485.609375 270.90625 C 484.933594 270.835938 484.273438 270.679688 483.640625 270.429688 Z M 479.367188 267.972656 C 478.714844 267.445312 478.121094 266.863281 477.632812 266.226562 L 477.785156 266.140625 C 481.257812 264.082031 483.261719 261.050781 481.503906 257.375 C 480.882812 256.082031 479.851562 255.839844 478.699219 256.191406 C 477.121094 256.671875 475.234375 258.761719 474.832031 259.652344 C 473.894531 261.722656 473.964844 263.664062 474.671875 265.410156 C 473.707031 265.769531 472.6875 266.046875 471.664062 266.234375 C 470.863281 263.980469 469.820312 261.691406 468.550781 260.117188 C 466.707031 257.835938 464.433594 256.886719 461.800781 258.421875 C 459.773438 259.605469 459.175781 261.222656 459.359375 262.816406 C 459.601562 264.921875 461.472656 267.113281 463.558594 268.125 C 465.058594 268.816406 467.265625 268.996094 469.636719 268.738281 C 470.304688 270.933594 470.722656 272.90625 470.894531 273.769531 C 472.179688 280.199219 472.347656 286.453125 472.042969 292.679688 C 471.578125 302.140625 469.953125 311.554688 468.679688 321.378906 C 468.601562 321.929688 468.984375 322.441406 469.539062 322.523438 C 470.089844 322.597656 470.601562 322.214844 470.679688 321.664062 C 472.222656 311.796875 474.242188 302.363281 474.828125 292.832031 C 475.230469 286.382812 474.945312 279.890625 473.601562 273.226562 C 473.425781 272.355469 473 270.445312 472.335938 268.269531 C 473.46875 268 474.59375 267.644531 475.652344 267.199219 C 476.222656 268.019531 476.933594 268.773438 477.722656 269.460938 C 478.386719 270.03125 479.804688 268.328125 479.367188 267.972656 Z M 488.296875 270.765625 C 489.785156 270.464844 491.210938 269.804688 492.394531 268.886719 C 494.714844 267.078125 496.066406 264.203125 494.804688 260.984375 C 494.4375 260.046875 493.867188 259.578125 493.101562 259.902344 C 492.289062 260.246094 491.433594 261.101562 490.539062 262.414062 C 489.746094 263.574219 488.96875 266.59375 488.296875 270.765625 Z M 468.890625 266.53125 C 468.464844 265.375 467.964844 264.234375 467.398438 263.234375 C 466.273438 261.257812 464.972656 259.664062 463.132812 260.722656 C 462.019531 261.359375 461.796875 262.261719 462.125 263.125 C 462.542969 264.230469 463.59375 265.25 464.699219 265.792969 C 465.746094 266.335938 467.238281 266.570312 468.890625 266.53125 Z M 476.636719 264.519531 L 476.792969 264.433594 C 479.300781 263.011719 480.9375 260.882812 479.660156 258.269531 C 479.410156 257.761719 478.960938 258.273438 478.503906 258.605469 C 477.699219 259.191406 476.945312 260.0625 476.75 260.507812 C 476.113281 261.953125 476.160156 263.304688 476.636719 264.519531 Z M 476.636719 264.519531 " fill-opacity="1" fill-rule="evenodd"/><path fill="#222222" d="M 434.519531 230.289062 C 433.535156 224.960938 433.046875 219.339844 433.683594 213.945312 C 433.957031 211.617188 434.519531 209.363281 435.179688 207.167969 C 437.3125 200.109375 441.390625 193.878906 448.558594 189.949219 C 449.632812 189.320312 449.992188 187.941406 449.363281 186.871094 C 448.734375 185.796875 447.351562 185.4375 446.28125 186.066406 C 439.972656 189.976562 435.800781 195.347656 433.527344 201.566406 C 432.179688 205.253906 431.605469 209.210938 431.339844 213.25 C 430.957031 219.03125 431.359375 225.011719 432.539062 230.679688 C 432.648438 231.226562 433.175781 231.582031 433.722656 231.472656 C 434.269531 231.367188 434.625 230.835938 434.519531 230.289062 Z M 434.519531 230.289062 " fill-opacity="1" fill-rule="evenodd"/><path fill="#222222" d="M 526.96875 221.410156 C 527.691406 226.394531 526.832031 230.84375 525.335938 234.609375 C 523.292969 239.753906 520.019531 243.558594 517.925781 245.597656 C 517.1875 246.375 517.21875 247.605469 517.996094 248.347656 C 518.773438 249.089844 520.007812 249.058594 520.746094 248.277344 C 522.882812 245.855469 526.183594 241.394531 528.007812 235.554688 C 529.324219 231.347656 529.910156 226.441406 528.71875 221.089844 C 528.632812 220.609375 528.167969 220.289062 527.683594 220.375 C 527.203125 220.464844 526.882812 220.925781 526.96875 221.410156 Z M 526.96875 221.410156 " fill-opacity="1" fill-rule="evenodd"/><g fill="#aa8453" fill-opacity="1"><g transform="translate(401.249983, 449.199992)"><g><path d="M 3.296875 -14 L 3.296875 -17.09375 L 37.09375 -65.40625 L 40 -64.90625 L 40 -17 L 52.40625 -17 L 52.40625 -14 L 40.09375 -14 C 40.300781 -8.46875 41.132812 -4.953125 42.59375 -3.453125 C 44.0625 -1.953125 47.128906 -1.203125 51.796875 -1.203125 L 52 0 L 21 0 L 21.203125 -1.203125 C 25.867188 -1.203125 28.914062 -1.929688 30.34375 -3.390625 C 31.78125 -4.859375 32.632812 -8.394531 32.90625 -14 Z M 33 -22.59375 L 33 -54.09375 L 7 -17 L 32.90625 -17 C 32.96875 -18.132812 33 -20 33 -22.59375 Z M 33 -22.59375 "/></g></g></g><g fill="#aa8453" fill-opacity="1"><g transform="translate(456.24786, 449.199992)"><g><path d="M 4.59375 -31.953125 C 4.59375 -42.316406 6.742188 -50.460938 11.046875 -56.390625 C 15.347656 -62.328125 20.863281 -65.296875 27.59375 -65.296875 C 34.332031 -65.296875 39.816406 -62.328125 44.046875 -56.390625 C 48.285156 -50.460938 50.40625 -42.316406 50.40625 -31.953125 C 50.40625 -21.585938 48.300781 -13.503906 44.09375 -7.703125 C 39.894531 -1.898438 34.410156 1 27.640625 1 C 20.878906 1 15.347656 -1.898438 11.046875 -7.703125 C 6.742188 -13.503906 4.59375 -21.585938 4.59375 -31.953125 Z M 11.796875 -32 C 11.796875 -23.0625 13.3125 -15.8125 16.34375 -10.25 C 19.382812 -4.6875 23.15625 -1.90625 27.65625 -1.90625 C 32.15625 -1.90625 35.867188 -4.671875 38.796875 -10.203125 C 41.734375 -15.734375 43.203125 -22.984375 43.203125 -31.953125 C 43.203125 -40.921875 41.734375 -48.285156 38.796875 -54.046875 C 35.867188 -59.816406 32.15625 -62.703125 27.65625 -62.703125 C 23.15625 -62.703125 19.382812 -59.816406 16.34375 -54.046875 C 13.3125 -48.285156 11.796875 -40.9375 11.796875 -32 Z M 11.796875 -32 "/></g></g></g><g fill="#aa8453" fill-opacity="1"><g transform="translate(511.245736, 449.199992)"><g><path d="M 3.296875 -14 L 3.296875 -17.09375 L 37.09375 -65.40625 L 40 -64.90625 L 40 -17 L 52.40625 -17 L 52.40625 -14 L 40.09375 -14 C 40.300781 -8.46875 41.132812 -4.953125 42.59375 -3.453125 C 44.0625 -1.953125 47.128906 -1.203125 51.796875 -1.203125 L 52 0 L 21 0 L 21.203125 -1.203125 C 25.867188 -1.203125 28.914062 -1.929688 30.34375 -3.390625 C 31.78125 -4.859375 32.632812 -8.394531 32.90625 -14 Z M 33 -22.59375 L 33 -54.09375 L 7 -17 L 32.90625 -17 C 32.96875 -18.132812 33 -20 33 -22.59375 Z M 33 -22.59375 "/></g></g></g><g fill="#aa8453" fill-opacity="1"><g transform="translate(237.492178, 529.349997)"><g><path d="M 15.140625 0.40625 C 11.472656 0.40625 8.554688 -0.429688 6.390625 -2.109375 C 4.234375 -3.796875 3.15625 -6.050781 3.15625 -8.875 L 3.15625 -10.453125 C 3.15625 -10.617188 3.210938 -10.757812 3.328125 -10.875 C 3.453125 -11 3.601562 -11.0625 3.78125 -11.0625 L 5.15625 -11.0625 C 5.320312 -11.0625 5.460938 -11 5.578125 -10.875 C 5.703125 -10.757812 5.765625 -10.617188 5.765625 -10.453125 L 5.765625 -9.03125 C 5.765625 -6.914062 6.628906 -5.210938 8.359375 -3.921875 C 10.097656 -2.628906 12.445312 -1.984375 15.40625 -1.984375 C 18.226562 -1.984375 20.378906 -2.570312 21.859375 -3.75 C 23.335938 -4.925781 24.078125 -6.550781 24.078125 -8.625 C 24.078125 -9.875 23.753906 -10.96875 23.109375 -11.90625 C 22.460938 -12.84375 21.441406 -13.71875 20.046875 -14.53125 C 18.648438 -15.351562 16.710938 -16.289062 14.234375 -17.34375 C 11.578125 -18.457031 9.566406 -19.390625 8.203125 -20.140625 C 6.847656 -20.890625 5.757812 -21.832031 4.9375 -22.96875 C 4.125 -24.113281 3.71875 -25.585938 3.71875 -27.390625 C 3.71875 -30.171875 4.675781 -32.316406 6.59375 -33.828125 C 8.519531 -35.347656 11.1875 -36.109375 14.59375 -36.109375 C 18.332031 -36.109375 21.242188 -35.257812 23.328125 -33.5625 C 25.421875 -31.863281 26.46875 -29.582031 26.46875 -26.71875 L 26.46875 -25.65625 C 26.46875 -25.476562 26.40625 -25.332031 26.28125 -25.21875 C 26.164062 -25.101562 26.023438 -25.046875 25.859375 -25.046875 L 24.375 -25.046875 C 24.207031 -25.046875 24.0625 -25.101562 23.9375 -25.21875 C 23.820312 -25.332031 23.765625 -25.476562 23.765625 -25.65625 L 23.765625 -26.578125 C 23.765625 -28.710938 22.945312 -30.4375 21.3125 -31.75 C 19.6875 -33.0625 17.394531 -33.71875 14.4375 -33.71875 C 11.851562 -33.71875 9.863281 -33.179688 8.46875 -32.109375 C 7.070312 -31.035156 6.375 -29.492188 6.375 -27.484375 C 6.375 -26.128906 6.695312 -25.023438 7.34375 -24.171875 C 7.988281 -23.328125 8.914062 -22.585938 10.125 -21.953125 C 11.332031 -21.328125 13.191406 -20.503906 15.703125 -19.484375 C 18.222656 -18.460938 20.253906 -17.484375 21.796875 -16.546875 C 23.347656 -15.609375 24.566406 -14.507812 25.453125 -13.25 C 26.335938 -12 26.78125 -10.488281 26.78125 -8.71875 C 26.78125 -5.96875 25.757812 -3.757812 23.71875 -2.09375 C 21.675781 -0.425781 18.816406 0.40625 15.140625 0.40625 Z M 15.140625 0.40625 "/></g></g></g><g fill="#aa8453" fill-opacity="1"><g transform="translate(267.276215, 529.349997)"><g><path d="M 13.765625 0.40625 C 11.359375 0.40625 9.3125 -0.21875 7.625 -1.46875 C 5.9375 -2.726562 4.789062 -4.414062 4.1875 -6.53125 C 3.769531 -7.882812 3.5625 -10.007812 3.5625 -12.90625 C 3.5625 -15.625 3.75 -17.734375 4.125 -19.234375 C 4.738281 -21.335938 5.894531 -23.007812 7.59375 -24.25 C 9.300781 -25.488281 11.359375 -26.109375 13.765625 -26.109375 C 16.148438 -26.109375 18.195312 -25.476562 19.90625 -24.21875 C 21.625 -22.96875 22.773438 -21.304688 23.359375 -19.234375 C 23.734375 -17.867188 23.921875 -15.757812 23.921875 -12.90625 C 23.921875 -10.007812 23.734375 -7.882812 23.359375 -6.53125 C 22.773438 -4.414062 21.625 -2.726562 19.90625 -1.46875 C 18.195312 -0.21875 16.148438 0.40625 13.765625 0.40625 Z M 13.765625 -1.984375 C 15.566406 -1.984375 17.101562 -2.476562 18.375 -3.46875 C 19.65625 -4.457031 20.484375 -5.785156 20.859375 -7.453125 C 21.066406 -8.398438 21.171875 -10.203125 21.171875 -12.859375 C 21.171875 -15.578125 21.066406 -17.378906 20.859375 -18.265625 C 20.484375 -19.921875 19.65625 -21.242188 18.375 -22.234375 C 17.101562 -23.222656 15.550781 -23.71875 13.71875 -23.71875 C 11.882812 -23.71875 10.335938 -23.222656 9.078125 -22.234375 C 7.816406 -21.242188 7 -19.921875 6.625 -18.265625 C 6.425781 -17.378906 6.328125 -15.578125 6.328125 -12.859375 C 6.328125 -10.128906 6.425781 -8.328125 6.625 -7.453125 C 7 -5.785156 7.816406 -4.457031 9.078125 -3.46875 C 10.335938 -2.476562 11.898438 -1.984375 13.765625 -1.984375 Z M 13.765625 -1.984375 "/></g></g></g><g fill="#aa8453" fill-opacity="1"><g transform="translate(294.765243, 529.349997)"><g><path d="M 14.125 -25.90625 C 15.175781 -25.90625 16.144531 -25.71875 17.03125 -25.34375 C 17.34375 -25.207031 17.445312 -24.953125 17.34375 -24.578125 L 16.9375 -23.109375 C 16.832031 -22.691406 16.578125 -22.570312 16.171875 -22.75 C 15.421875 -22.988281 14.601562 -23.085938 13.71875 -23.046875 C 11.8125 -23.015625 10.238281 -22.289062 9 -20.875 C 7.757812 -19.46875 7.140625 -17.742188 7.140625 -15.703125 L 7.140625 -0.609375 C 7.140625 -0.441406 7.078125 -0.296875 6.953125 -0.171875 C 6.835938 -0.0546875 6.695312 0 6.53125 0 L 5.046875 0 C 4.878906 0 4.734375 -0.0546875 4.609375 -0.171875 C 4.492188 -0.296875 4.4375 -0.441406 4.4375 -0.609375 L 4.4375 -25.09375 C 4.4375 -25.257812 4.492188 -25.398438 4.609375 -25.515625 C 4.734375 -25.640625 4.878906 -25.703125 5.046875 -25.703125 L 6.53125 -25.703125 C 6.695312 -25.703125 6.835938 -25.640625 6.953125 -25.515625 C 7.078125 -25.398438 7.140625 -25.257812 7.140625 -25.09375 L 7.140625 -21.71875 C 7.140625 -21.625 7.164062 -21.566406 7.21875 -21.546875 C 7.269531 -21.523438 7.3125 -21.566406 7.34375 -21.671875 C 8.0625 -22.992188 8.988281 -24.03125 10.125 -24.78125 C 11.257812 -25.53125 12.59375 -25.90625 14.125 -25.90625 Z M 14.125 -25.90625 "/></g></g></g><g fill="#aa8453" fill-opacity="1"><g transform="translate(313.074267, 529.349997)"><g><path d="M 14.125 -25.90625 C 15.175781 -25.90625 16.144531 -25.71875 17.03125 -25.34375 C 17.34375 -25.207031 17.445312 -24.953125 17.34375 -24.578125 L 16.9375 -23.109375 C 16.832031 -22.691406 16.578125 -22.570312 16.171875 -22.75 C 15.421875 -22.988281 14.601562 -23.085938 13.71875 -23.046875 C 11.8125 -23.015625 10.238281 -22.289062 9 -20.875 C 7.757812 -19.46875 7.140625 -17.742188 7.140625 -15.703125 L 7.140625 -0.609375 C 7.140625 -0.441406 7.078125 -0.296875 6.953125 -0.171875 C 6.835938 -0.0546875 6.695312 0 6.53125 0 L 5.046875 0 C 4.878906 0 4.734375 -0.0546875 4.609375 -0.171875 C 4.492188 -0.296875 4.4375 -0.441406 4.4375 -0.609375 L 4.4375 -25.09375 C 4.4375 -25.257812 4.492188 -25.398438 4.609375 -25.515625 C 4.734375 -25.640625 4.878906 -25.703125 5.046875 -25.703125 L 6.53125 -25.703125 C 6.695312 -25.703125 6.835938 -25.640625 6.953125 -25.515625 C 7.078125 -25.398438 7.140625 -25.257812 7.140625 -25.09375 L 7.140625 -21.71875 C 7.140625 -21.625 7.164062 -21.566406 7.21875 -21.546875 C 7.269531 -21.523438 7.3125 -21.566406 7.34375 -21.671875 C 8.0625 -22.992188 8.988281 -24.03125 10.125 -24.78125 C 11.257812 -25.53125 12.59375 -25.90625 14.125 -25.90625 Z M 14.125 -25.90625 "/></g></g></g><g fill="#aa8453" fill-opacity="1"><g transform="translate(331.383291, 529.349997)"><g><path d="M 3.015625 10.203125 C 2.910156 10.203125 2.820312 10.140625 2.75 10.015625 C 2.6875 9.898438 2.65625 9.757812 2.65625 9.59375 L 2.65625 8.46875 C 2.65625 8.300781 2.6875 8.15625 2.75 8.03125 C 2.820312 7.914062 2.910156 7.859375 3.015625 7.859375 L 3.359375 7.859375 C 4.648438 7.816406 5.660156 7.597656 6.390625 7.203125 C 7.128906 6.816406 7.757812 6.101562 8.28125 5.0625 C 8.8125 4.03125 9.4375 2.394531 10.15625 0.15625 C 10.21875 0.0195312 10.21875 -0.0820312 10.15625 -0.15625 L 1.484375 -24.984375 C 1.441406 -25.054688 1.421875 -25.144531 1.421875 -25.25 C 1.421875 -25.550781 1.609375 -25.703125 1.984375 -25.703125 L 3.515625 -25.703125 C 3.859375 -25.703125 4.082031 -25.53125 4.1875 -25.1875 L 11.421875 -3.921875 C 11.453125 -3.859375 11.5 -3.828125 11.5625 -3.828125 C 11.632812 -3.828125 11.691406 -3.859375 11.734375 -3.921875 L 18.71875 -25.1875 C 18.820312 -25.53125 19.039062 -25.703125 19.375 -25.703125 L 20.96875 -25.703125 C 21.164062 -25.703125 21.316406 -25.640625 21.421875 -25.515625 C 21.523438 -25.398438 21.539062 -25.222656 21.46875 -24.984375 L 11.890625 2.59375 C 11.097656 4.8125 10.363281 6.445312 9.6875 7.5 C 9.007812 8.550781 8.203125 9.265625 7.265625 9.640625 C 6.328125 10.015625 5.023438 10.203125 3.359375 10.203125 Z M 3.015625 10.203125 "/></g></g></g><g fill="#aa8453" fill-opacity="1"><g transform="translate(354.282311, 529.349997)"><g><path d="M 7.5 -11.46875 C 7.320312 -11.46875 7.175781 -11.523438 7.0625 -11.640625 C 6.945312 -11.765625 6.890625 -11.914062 6.890625 -12.09375 L 6.734375 -35.09375 C 6.734375 -35.257812 6.789062 -35.398438 6.90625 -35.515625 C 7.03125 -35.640625 7.175781 -35.703125 7.34375 -35.703125 L 8.828125 -35.703125 C 8.992188 -35.703125 9.132812 -35.640625 9.25 -35.515625 C 9.375 -35.398438 9.4375 -35.257812 9.4375 -35.09375 L 9.234375 -12.09375 C 9.234375 -11.914062 9.171875 -11.765625 9.046875 -11.640625 C 8.929688 -11.523438 8.789062 -11.46875 8.625 -11.46875 Z M 7.90625 -0.203125 C 7.125 -0.203125 6.46875 -0.460938 5.9375 -0.984375 C 5.414062 -1.515625 5.15625 -2.15625 5.15625 -2.90625 C 5.15625 -3.625 5.429688 -4.242188 5.984375 -4.765625 C 6.546875 -5.296875 7.1875 -5.5625 7.90625 -5.5625 C 8.65625 -5.5625 9.304688 -5.296875 9.859375 -4.765625 C 10.421875 -4.242188 10.703125 -3.625 10.703125 -2.90625 C 10.703125 -2.15625 10.429688 -1.515625 9.890625 -0.984375 C 9.347656 -0.460938 8.6875 -0.203125 7.90625 -0.203125 Z M 7.90625 -0.203125 "/></g></g></g><g fill="#aa8453" fill-opacity="1"><g transform="translate(370.398326, 529.349997)"><g/></g></g><g fill="#aa8453" fill-opacity="1"><g transform="translate(380.598342, 529.349997)"><g><path d="M 18.46875 -35.796875 C 21.351562 -35.796875 23.675781 -34.90625 25.4375 -33.125 C 27.207031 -31.34375 28.09375 -28.988281 28.09375 -26.0625 C 28.09375 -23.164062 27.203125 -20.832031 25.421875 -19.0625 C 23.640625 -17.300781 21.285156 -16.421875 18.359375 -16.421875 L 7.75 -16.421875 C 7.613281 -16.421875 7.546875 -16.351562 7.546875 -16.21875 L 7.546875 -0.609375 C 7.546875 -0.441406 7.484375 -0.296875 7.359375 -0.171875 C 7.242188 -0.0546875 7.101562 0 6.9375 0 L 5.453125 0 C 5.285156 0 5.140625 -0.0546875 5.015625 -0.171875 C 4.898438 -0.296875 4.84375 -0.441406 4.84375 -0.609375 L 4.84375 -35.1875 C 4.84375 -35.351562 4.898438 -35.492188 5.015625 -35.609375 C 5.140625 -35.734375 5.285156 -35.796875 5.453125 -35.796875 Z M 18.265625 -18.71875 C 20.398438 -18.71875 22.117188 -19.390625 23.421875 -20.734375 C 24.734375 -22.078125 25.390625 -23.835938 25.390625 -26.015625 C 25.390625 -28.222656 24.734375 -30 23.421875 -31.34375 C 22.117188 -32.6875 20.398438 -33.359375 18.265625 -33.359375 L 7.75 -33.359375 C 7.613281 -33.359375 7.546875 -33.289062 7.546875 -33.15625 L 7.546875 -18.921875 C 7.546875 -18.785156 7.613281 -18.71875 7.75 -18.71875 Z M 18.265625 -18.71875 "/></g></g></g><g fill="#aa8453" fill-opacity="1"><g transform="translate(410.688371, 529.349997)"><g><path d="M 12.953125 -26.109375 C 15.941406 -26.109375 18.21875 -25.332031 19.78125 -23.78125 C 21.351562 -22.238281 22.140625 -20.160156 22.140625 -17.546875 L 22.140625 -0.609375 C 22.140625 -0.441406 22.078125 -0.296875 21.953125 -0.171875 C 21.835938 -0.0546875 21.691406 0 21.515625 0 L 20.046875 0 C 19.867188 0 19.722656 -0.0546875 19.609375 -0.171875 C 19.492188 -0.296875 19.4375 -0.441406 19.4375 -0.609375 L 19.4375 -2.8125 C 19.4375 -2.875 19.410156 -2.921875 19.359375 -2.953125 C 19.304688 -2.992188 19.242188 -2.976562 19.171875 -2.90625 C 18.285156 -1.820312 17.113281 -1 15.65625 -0.4375 C 14.195312 0.125 12.632812 0.40625 10.96875 0.40625 C 8.582031 0.40625 6.585938 -0.175781 4.984375 -1.34375 C 3.390625 -2.519531 2.59375 -4.347656 2.59375 -6.828125 C 2.59375 -9.347656 3.53125 -11.335938 5.40625 -12.796875 C 7.28125 -14.265625 9.847656 -15 13.109375 -15 L 19.234375 -15 C 19.367188 -15 19.4375 -15.066406 19.4375 -15.203125 L 19.4375 -17.5 C 19.4375 -19.4375 18.90625 -20.957031 17.84375 -22.0625 C 16.789062 -23.164062 15.144531 -23.71875 12.90625 -23.71875 C 11.164062 -23.71875 9.734375 -23.367188 8.609375 -22.671875 C 7.492188 -21.972656 6.800781 -21.03125 6.53125 -19.84375 C 6.425781 -19.4375 6.1875 -19.265625 5.8125 -19.328125 L 4.234375 -19.53125 C 3.785156 -19.601562 3.597656 -19.789062 3.671875 -20.09375 C 4.015625 -21.894531 5.019531 -23.347656 6.6875 -24.453125 C 8.351562 -25.554688 10.441406 -26.109375 12.953125 -26.109375 Z M 11.46875 -1.9375 C 13.613281 -1.9375 15.476562 -2.460938 17.0625 -3.515625 C 18.644531 -4.566406 19.4375 -6.03125 19.4375 -7.90625 L 19.4375 -12.546875 C 19.4375 -12.679688 19.367188 -12.75 19.234375 -12.75 L 13.40625 -12.75 C 10.957031 -12.75 8.992188 -12.238281 7.515625 -11.21875 C 6.035156 -10.195312 5.296875 -8.785156 5.296875 -6.984375 C 5.296875 -5.316406 5.875 -4.054688 7.03125 -3.203125 C 8.1875 -2.359375 9.664062 -1.9375 11.46875 -1.9375 Z M 11.46875 -1.9375 "/></g></g></g><g fill="#aa8453" fill-opacity="1"><g transform="translate(436.494397, 529.349997)"><g><path d="M 20.34375 -25.09375 C 20.34375 -25.257812 20.398438 -25.398438 20.515625 -25.515625 C 20.640625 -25.640625 20.789062 -25.703125 20.96875 -25.703125 L 22.4375 -25.703125 C 22.601562 -25.703125 22.742188 -25.640625 22.859375 -25.515625 C 22.984375 -25.398438 23.046875 -25.257812 23.046875 -25.09375 L 23.046875 -0.5625 C 23.046875 3.28125 21.898438 6.066406 19.609375 7.796875 C 17.316406 9.535156 14.078125 10.320312 9.890625 10.15625 C 9.484375 10.113281 9.28125 9.890625 9.28125 9.484375 L 9.328125 8.21875 C 9.328125 7.800781 9.53125 7.613281 9.9375 7.65625 C 13.539062 7.75 16.175781 7.125 17.84375 5.78125 C 19.507812 4.445312 20.34375 2.316406 20.34375 -0.609375 L 20.34375 -3.15625 C 20.34375 -3.257812 20.316406 -3.316406 20.265625 -3.328125 C 20.222656 -3.347656 20.164062 -3.328125 20.09375 -3.265625 C 18.5625 -0.921875 16.234375 0.25 13.109375 0.25 C 10.898438 0.25 8.960938 -0.347656 7.296875 -1.546875 C 5.628906 -2.753906 4.523438 -4.414062 3.984375 -6.53125 C 3.609375 -7.925781 3.421875 -10.015625 3.421875 -12.796875 C 3.421875 -15.785156 3.625 -17.976562 4.03125 -19.375 C 4.570312 -21.382812 5.640625 -23.007812 7.234375 -24.25 C 8.835938 -25.488281 10.757812 -26.109375 13 -26.109375 C 16.132812 -26.109375 18.5 -24.953125 20.09375 -22.640625 C 20.125 -22.578125 20.171875 -22.5625 20.234375 -22.59375 C 20.304688 -22.625 20.34375 -22.675781 20.34375 -22.75 Z M 20.09375 -7.5 C 20.195312 -8.007812 20.265625 -8.632812 20.296875 -9.375 C 20.328125 -10.125 20.34375 -11.285156 20.34375 -12.859375 C 20.34375 -14.421875 20.328125 -15.570312 20.296875 -16.3125 C 20.265625 -17.0625 20.195312 -17.726562 20.09375 -18.3125 C 19.820312 -19.875 19.097656 -21.164062 17.921875 -22.1875 C 16.753906 -23.207031 15.285156 -23.71875 13.515625 -23.71875 C 11.742188 -23.71875 10.253906 -23.207031 9.046875 -22.1875 C 7.835938 -21.164062 7.015625 -19.875 6.578125 -18.3125 C 6.273438 -17.289062 6.125 -15.488281 6.125 -12.90625 C 6.125 -10.382812 6.273438 -8.582031 6.578125 -7.5 C 6.953125 -5.9375 7.757812 -4.644531 9 -3.625 C 10.238281 -2.601562 11.742188 -2.09375 13.515625 -2.09375 C 15.347656 -2.09375 16.832031 -2.601562 17.96875 -3.625 C 19.113281 -4.644531 19.820312 -5.9375 20.09375 -7.5 Z M 20.09375 -7.5 "/></g></g></g><g fill="#aa8453" fill-opacity="1"><g transform="translate(463.524425, 529.349997)"><g><path d="M 13.875 -1.9375 C 15.539062 -1.96875 16.96875 -2.347656 18.15625 -3.078125 C 19.34375 -3.816406 20.226562 -4.832031 20.8125 -6.125 C 21.007812 -6.457031 21.28125 -6.554688 21.625 -6.421875 L 22.546875 -6.0625 C 22.953125 -5.894531 23.070312 -5.625 22.90625 -5.25 C 22.15625 -3.519531 20.976562 -2.144531 19.375 -1.125 C 17.78125 -0.101562 15.878906 0.40625 13.671875 0.40625 C 11.328125 0.40625 9.34375 -0.171875 7.71875 -1.328125 C 6.101562 -2.484375 4.972656 -4.0625 4.328125 -6.0625 C 3.859375 -7.632812 3.625 -9.914062 3.625 -12.90625 C 3.625 -14.570312 3.648438 -15.828125 3.703125 -16.671875 C 3.753906 -17.523438 3.863281 -18.304688 4.03125 -19.015625 C 4.570312 -21.160156 5.679688 -22.878906 7.359375 -24.171875 C 9.046875 -25.460938 11.113281 -26.109375 13.5625 -26.109375 C 16.28125 -26.109375 18.472656 -25.394531 20.140625 -23.96875 C 21.804688 -22.539062 22.863281 -20.585938 23.3125 -18.109375 C 23.445312 -17.421875 23.535156 -16.710938 23.578125 -15.984375 C 23.628906 -15.253906 23.65625 -14.140625 23.65625 -12.640625 C 23.65625 -12.203125 23.453125 -11.984375 23.046875 -11.984375 L 6.484375 -11.984375 C 6.335938 -11.984375 6.265625 -11.914062 6.265625 -11.78125 C 6.265625 -9.632812 6.351562 -8.171875 6.53125 -7.390625 C 6.90625 -5.765625 7.738281 -4.445312 9.03125 -3.4375 C 10.320312 -2.4375 11.9375 -1.9375 13.875 -1.9375 Z M 6.625 -18.40625 C 6.457031 -17.757812 6.335938 -16.414062 6.265625 -14.375 C 6.265625 -14.238281 6.335938 -14.171875 6.484375 -14.171875 L 20.703125 -14.171875 C 20.835938 -14.171875 20.90625 -14.238281 20.90625 -14.375 C 20.90625 -16.113281 20.820312 -17.410156 20.65625 -18.265625 C 20.28125 -19.890625 19.460938 -21.203125 18.203125 -22.203125 C 16.941406 -23.210938 15.394531 -23.71875 13.5625 -23.71875 C 11.726562 -23.71875 10.195312 -23.234375 8.96875 -22.265625 C 7.75 -21.296875 6.96875 -20.007812 6.625 -18.40625 Z M 6.625 -18.40625 "/></g></g></g><g fill="#aa8453" fill-opacity="1"><g transform="translate(490.605448, 529.349997)"><g/></g></g><g fill="#aa8453" fill-opacity="1"><g transform="translate(500.805475, 529.349997)"><g><path d="M 5.8125 0 C 5.644531 0 5.5 -0.0546875 5.375 -0.171875 C 5.257812 -0.296875 5.203125 -0.441406 5.203125 -0.609375 L 5.203125 -35.09375 C 5.203125 -35.257812 5.257812 -35.398438 5.375 -35.515625 C 5.5 -35.640625 5.644531 -35.703125 5.8125 -35.703125 L 7.34375 -35.703125 C 7.6875 -35.703125 7.925781 -35.566406 8.0625 -35.296875 L 26.359375 -5.609375 C 26.398438 -5.503906 26.453125 -5.460938 26.515625 -5.484375 C 26.585938 -5.503906 26.625 -5.5625 26.625 -5.65625 L 26.625 -35.09375 C 26.625 -35.257812 26.679688 -35.398438 26.796875 -35.515625 C 26.921875 -35.640625 27.066406 -35.703125 27.234375 -35.703125 L 28.71875 -35.703125 C 28.882812 -35.703125 29.023438 -35.640625 29.140625 -35.515625 C 29.265625 -35.398438 29.328125 -35.257812 29.328125 -35.09375 L 29.328125 -0.609375 C 29.328125 -0.441406 29.265625 -0.296875 29.140625 -0.171875 C 29.023438 -0.0546875 28.882812 0 28.71875 0 L 27.1875 0 C 26.84375 0 26.601562 -0.132812 26.46875 -0.40625 L 8.15625 -30.140625 C 8.125 -30.242188 8.070312 -30.285156 8 -30.265625 C 7.9375 -30.253906 7.90625 -30.195312 7.90625 -30.09375 L 7.90625 -0.609375 C 7.90625 -0.441406 7.84375 -0.296875 7.71875 -0.171875 C 7.601562 -0.0546875 7.460938 0 7.296875 0 Z M 5.8125 0 "/></g></g></g><g fill="#aa8453" fill-opacity="1"><g transform="translate(535.332527, 529.349997)"><g><path d="M 13.765625 0.40625 C 11.359375 0.40625 9.3125 -0.21875 7.625 -1.46875 C 5.9375 -2.726562 4.789062 -4.414062 4.1875 -6.53125 C 3.769531 -7.882812 3.5625 -10.007812 3.5625 -12.90625 C 3.5625 -15.625 3.75 -17.734375 4.125 -19.234375 C 4.738281 -21.335938 5.894531 -23.007812 7.59375 -24.25 C 9.300781 -25.488281 11.359375 -26.109375 13.765625 -26.109375 C 16.148438 -26.109375 18.195312 -25.476562 19.90625 -24.21875 C 21.625 -22.96875 22.773438 -21.304688 23.359375 -19.234375 C 23.734375 -17.867188 23.921875 -15.757812 23.921875 -12.90625 C 23.921875 -10.007812 23.734375 -7.882812 23.359375 -6.53125 C 22.773438 -4.414062 21.625 -2.726562 19.90625 -1.46875 C 18.195312 -0.21875 16.148438 0.40625 13.765625 0.40625 Z M 13.765625 -1.984375 C 15.566406 -1.984375 17.101562 -2.476562 18.375 -3.46875 C 19.65625 -4.457031 20.484375 -5.785156 20.859375 -7.453125 C 21.066406 -8.398438 21.171875 -10.203125 21.171875 -12.859375 C 21.171875 -15.578125 21.066406 -17.378906 20.859375 -18.265625 C 20.484375 -19.921875 19.65625 -21.242188 18.375 -22.234375 C 17.101562 -23.222656 15.550781 -23.71875 13.71875 -23.71875 C 11.882812 -23.71875 10.335938 -23.222656 9.078125 -22.234375 C 7.816406 -21.242188 7 -19.921875 6.625 -18.265625 C 6.425781 -17.378906 6.328125 -15.578125 6.328125 -12.859375 C 6.328125 -10.128906 6.425781 -8.328125 6.625 -7.453125 C 7 -5.785156 7.816406 -4.457031 9.078125 -3.46875 C 10.335938 -2.476562 11.898438 -1.984375 13.765625 -1.984375 Z M 13.765625 -1.984375 "/></g></g></g><g fill="#aa8453" fill-opacity="1"><g transform="translate(562.821555, 529.349997)"><g><path d="M 15.140625 -24.015625 C 15.140625 -23.847656 15.082031 -23.703125 14.96875 -23.578125 C 14.851562 -23.460938 14.707031 -23.40625 14.53125 -23.40625 L 8.671875 -23.40625 C 8.535156 -23.40625 8.46875 -23.335938 8.46875 -23.203125 L 8.46875 -7.140625 C 8.46875 -5.398438 8.859375 -4.179688 9.640625 -3.484375 C 10.421875 -2.796875 11.675781 -2.453125 13.40625 -2.453125 L 14.484375 -2.453125 C 14.648438 -2.453125 14.789062 -2.390625 14.90625 -2.265625 C 15.03125 -2.148438 15.09375 -2.007812 15.09375 -1.84375 L 15.09375 -0.65625 C 15.09375 -0.25 14.890625 -0.046875 14.484375 -0.046875 L 13.0625 0 C 10.707031 0 8.914062 -0.457031 7.6875 -1.375 C 6.46875 -2.289062 5.84375 -3.972656 5.8125 -6.421875 L 5.8125 -23.203125 C 5.8125 -23.335938 5.742188 -23.40625 5.609375 -23.40625 L 2.65625 -23.40625 C 2.476562 -23.40625 2.332031 -23.460938 2.21875 -23.578125 C 2.101562 -23.703125 2.046875 -23.847656 2.046875 -24.015625 L 2.046875 -25.09375 C 2.046875 -25.257812 2.101562 -25.398438 2.21875 -25.515625 C 2.332031 -25.640625 2.476562 -25.703125 2.65625 -25.703125 L 5.609375 -25.703125 C 5.742188 -25.703125 5.8125 -25.769531 5.8125 -25.90625 L 5.8125 -31.625 C 5.8125 -31.789062 5.867188 -31.929688 5.984375 -32.046875 C 6.109375 -32.171875 6.253906 -32.234375 6.421875 -32.234375 L 7.859375 -32.234375 C 8.023438 -32.234375 8.164062 -32.171875 8.28125 -32.046875 C 8.40625 -31.929688 8.46875 -31.789062 8.46875 -31.625 L 8.46875 -25.90625 C 8.46875 -25.769531 8.535156 -25.703125 8.671875 -25.703125 L 14.53125 -25.703125 C 14.707031 -25.703125 14.851562 -25.640625 14.96875 -25.515625 C 15.082031 -25.398438 15.140625 -25.257812 15.140625 -25.09375 Z M 15.140625 -24.015625 "/></g></g></g><g fill="#aa8453" fill-opacity="1"><g transform="translate(581.13059, 529.349997)"><g/></g></g><g fill="#aa8453" fill-opacity="1"><g transform="translate(591.330617, 529.349997)"><g><path d="M 27.890625 -33.921875 C 27.890625 -33.742188 27.832031 -33.59375 27.71875 -33.46875 C 27.601562 -33.351562 27.457031 -33.296875 27.28125 -33.296875 L 8.109375 -33.296875 C 7.972656 -33.296875 7.90625 -33.226562 7.90625 -33.09375 L 7.90625 -19.328125 C 7.90625 -19.191406 7.972656 -19.125 8.109375 -19.125 L 21.671875 -19.125 C 21.847656 -19.125 21.992188 -19.0625 22.109375 -18.9375 C 22.222656 -18.820312 22.28125 -18.679688 22.28125 -18.515625 L 22.28125 -17.34375 C 22.28125 -17.164062 22.222656 -17.019531 22.109375 -16.90625 C 21.992188 -16.789062 21.847656 -16.734375 21.671875 -16.734375 L 8.109375 -16.734375 C 7.972656 -16.734375 7.90625 -16.664062 7.90625 -16.53125 L 7.90625 -0.609375 C 7.90625 -0.441406 7.84375 -0.296875 7.71875 -0.171875 C 7.601562 -0.0546875 7.460938 0 7.296875 0 L 5.8125 0 C 5.644531 0 5.5 -0.0546875 5.375 -0.171875 C 5.257812 -0.296875 5.203125 -0.441406 5.203125 -0.609375 L 5.203125 -35.09375 C 5.203125 -35.257812 5.257812 -35.398438 5.375 -35.515625 C 5.5 -35.640625 5.644531 -35.703125 5.8125 -35.703125 L 27.28125 -35.703125 C 27.457031 -35.703125 27.601562 -35.640625 27.71875 -35.515625 C 27.832031 -35.398438 27.890625 -35.257812 27.890625 -35.09375 Z M 27.890625 -33.921875 "/></g></g></g><g fill="#aa8453" fill-opacity="1"><g transform="translate(620.400646, 529.349997)"><g><path d="M 13.765625 0.40625 C 11.359375 0.40625 9.3125 -0.21875 7.625 -1.46875 C 5.9375 -2.726562 4.789062 -4.414062 4.1875 -6.53125 C 3.769531 -7.882812 3.5625 -10.007812 3.5625 -12.90625 C 3.5625 -15.625 3.75 -17.734375 4.125 -19.234375 C 4.738281 -21.335938 5.894531 -23.007812 7.59375 -24.25 C 9.300781 -25.488281 11.359375 -26.109375 13.765625 -26.109375 C 16.148438 -26.109375 18.195312 -25.476562 19.90625 -24.21875 C 21.625 -22.96875 22.773438 -21.304688 23.359375 -19.234375 C 23.734375 -17.867188 23.921875 -15.757812 23.921875 -12.90625 C 23.921875 -10.007812 23.734375 -7.882812 23.359375 -6.53125 C 22.773438 -4.414062 21.625 -2.726562 19.90625 -1.46875 C 18.195312 -0.21875 16.148438 0.40625 13.765625 0.40625 Z M 13.765625 -1.984375 C 15.566406 -1.984375 17.101562 -2.476562 18.375 -3.46875 C 19.65625 -4.457031 20.484375 -5.785156 20.859375 -7.453125 C 21.066406 -8.398438 21.171875 -10.203125 21.171875 -12.859375 C 21.171875 -15.578125 21.066406 -17.378906 20.859375 -18.265625 C 20.484375 -19.921875 19.65625 -21.242188 18.375 -22.234375 C 17.101562 -23.222656 15.550781 -23.71875 13.71875 -23.71875 C 11.882812 -23.71875 10.335938 -23.222656 9.078125 -22.234375 C 7.816406 -21.242188 7 -19.921875 6.625 -18.265625 C 6.425781 -17.378906 6.328125 -15.578125 6.328125 -12.859375 C 6.328125 -10.128906 6.425781 -8.328125 6.625 -7.453125 C 7 -5.785156 7.816406 -4.457031 9.078125 -3.46875 C 10.335938 -2.476562 11.898438 -1.984375 13.765625 -1.984375 Z M 13.765625 -1.984375 "/></g></g></g><g fill="#aa8453" fill-opacity="1"><g transform="translate(647.889651, 529.349997)"><g><path d="M 20.203125 -25.09375 C 20.203125 -25.257812 20.257812 -25.398438 20.375 -25.515625 C 20.488281 -25.640625 20.632812 -25.703125 20.8125 -25.703125 L 22.234375 -25.703125 C 22.398438 -25.703125 22.539062 -25.640625 22.65625 -25.515625 C 22.78125 -25.398438 22.84375 -25.257812 22.84375 -25.09375 L 22.84375 -0.609375 C 22.84375 -0.441406 22.78125 -0.296875 22.65625 -0.171875 C 22.539062 -0.0546875 22.398438 0 22.234375 0 L 20.8125 0 C 20.632812 0 20.488281 -0.0546875 20.375 -0.171875 C 20.257812 -0.296875 20.203125 -0.441406 20.203125 -0.609375 L 20.203125 -3.015625 C 20.203125 -3.109375 20.164062 -3.164062 20.09375 -3.1875 C 20.019531 -3.207031 19.96875 -3.164062 19.9375 -3.0625 C 19.226562 -1.9375 18.269531 -1.082031 17.0625 -0.5 C 15.851562 0.0703125 14.429688 0.359375 12.796875 0.359375 C 10.285156 0.359375 8.195312 -0.382812 6.53125 -1.875 C 4.863281 -3.375 4.03125 -5.4375 4.03125 -8.0625 L 4.03125 -25.09375 C 4.03125 -25.257812 4.085938 -25.398438 4.203125 -25.515625 C 4.328125 -25.640625 4.472656 -25.703125 4.640625 -25.703125 L 6.0625 -25.703125 C 6.238281 -25.703125 6.382812 -25.640625 6.5 -25.515625 C 6.625 -25.398438 6.6875 -25.257812 6.6875 -25.09375 L 6.6875 -8.765625 C 6.6875 -6.734375 7.285156 -5.101562 8.484375 -3.875 C 9.691406 -2.65625 11.300781 -2.046875 13.3125 -2.046875 C 15.382812 -2.046875 17.050781 -2.664062 18.3125 -3.90625 C 19.570312 -5.144531 20.203125 -6.765625 20.203125 -8.765625 Z M 20.203125 -25.09375 "/></g></g></g><g fill="#aa8453" fill-opacity="1"><g transform="translate(675.174654, 529.349997)"><g><path d="M 14.59375 -26.0625 C 17.207031 -26.0625 19.3125 -25.257812 20.90625 -23.65625 C 22.507812 -22.0625 23.3125 -19.957031 23.3125 -17.34375 L 23.3125 -0.609375 C 23.3125 -0.441406 23.25 -0.296875 23.125 -0.171875 C 23.007812 -0.0546875 22.863281 0 22.6875 0 L 21.21875 0 C 21.050781 0 20.90625 -0.0546875 20.78125 -0.171875 C 20.664062 -0.296875 20.609375 -0.441406 20.609375 -0.609375 L 20.609375 -16.828125 C 20.609375 -18.835938 19.992188 -20.476562 18.765625 -21.75 C 17.546875 -23.019531 15.96875 -23.65625 14.03125 -23.65625 C 11.945312 -23.65625 10.273438 -23.035156 9.015625 -21.796875 C 7.765625 -20.554688 7.140625 -18.9375 7.140625 -16.9375 L 7.140625 -0.609375 C 7.140625 -0.441406 7.078125 -0.296875 6.953125 -0.171875 C 6.835938 -0.0546875 6.695312 0 6.53125 0 L 5.046875 0 C 4.878906 0 4.734375 -0.0546875 4.609375 -0.171875 C 4.492188 -0.296875 4.4375 -0.441406 4.4375 -0.609375 L 4.4375 -25.09375 C 4.4375 -25.257812 4.492188 -25.398438 4.609375 -25.515625 C 4.734375 -25.640625 4.878906 -25.703125 5.046875 -25.703125 L 6.53125 -25.703125 C 6.695312 -25.703125 6.835938 -25.640625 6.953125 -25.515625 C 7.078125 -25.398438 7.140625 -25.257812 7.140625 -25.09375 L 7.140625 -22.6875 C 7.140625 -22.59375 7.164062 -22.535156 7.21875 -22.515625 C 7.269531 -22.492188 7.3125 -22.519531 7.34375 -22.59375 C 8.09375 -23.71875 9.085938 -24.578125 10.328125 -25.171875 C 11.566406 -25.765625 12.988281 -26.0625 14.59375 -26.0625 Z M 14.59375 -26.0625 "/></g></g></g><g fill="#aa8453" fill-opacity="1"><g transform="translate(702.561691, 529.349997)"><g><path d="M 20.296875 -35.09375 C 20.296875 -35.257812 20.351562 -35.398438 20.46875 -35.515625 C 20.59375 -35.640625 20.738281 -35.703125 20.90625 -35.703125 L 22.390625 -35.703125 C 22.554688 -35.703125 22.695312 -35.640625 22.8125 -35.515625 C 22.9375 -35.398438 23 -35.257812 23 -35.09375 L 23 -0.609375 C 23 -0.441406 22.9375 -0.296875 22.8125 -0.171875 C 22.695312 -0.0546875 22.554688 0 22.390625 0 L 20.90625 0 C 20.738281 0 20.59375 -0.0546875 20.46875 -0.171875 C 20.351562 -0.296875 20.296875 -0.441406 20.296875 -0.609375 L 20.296875 -3.015625 C 20.296875 -3.109375 20.269531 -3.164062 20.21875 -3.1875 C 20.164062 -3.207031 20.109375 -3.179688 20.046875 -3.109375 C 19.296875 -1.984375 18.332031 -1.113281 17.15625 -0.5 C 15.988281 0.101562 14.65625 0.40625 13.15625 0.40625 C 10.84375 0.40625 8.882812 -0.203125 7.28125 -1.421875 C 5.6875 -2.648438 4.601562 -4.300781 4.03125 -6.375 C 3.65625 -7.800781 3.46875 -9.941406 3.46875 -12.796875 C 3.46875 -14.328125 3.5 -15.582031 3.5625 -16.5625 C 3.632812 -17.550781 3.773438 -18.441406 3.984375 -19.234375 C 4.523438 -21.335938 5.601562 -23.007812 7.21875 -24.25 C 8.832031 -25.488281 10.8125 -26.109375 13.15625 -26.109375 C 14.65625 -26.109375 15.988281 -25.8125 17.15625 -25.21875 C 18.332031 -24.625 19.296875 -23.765625 20.046875 -22.640625 C 20.078125 -22.578125 20.125 -22.5625 20.1875 -22.59375 C 20.257812 -22.625 20.296875 -22.675781 20.296875 -22.75 Z M 19.640625 -6.78125 C 19.867188 -7.425781 20.023438 -8.15625 20.109375 -8.96875 C 20.203125 -9.789062 20.25 -11.066406 20.25 -12.796875 C 20.25 -14.597656 20.195312 -15.914062 20.09375 -16.75 C 19.988281 -17.582031 19.816406 -18.335938 19.578125 -19.015625 C 19.242188 -20.410156 18.53125 -21.539062 17.4375 -22.40625 C 16.351562 -23.28125 15.03125 -23.71875 13.46875 -23.71875 C 11.863281 -23.71875 10.484375 -23.28125 9.328125 -22.40625 C 8.171875 -21.539062 7.390625 -20.429688 6.984375 -19.078125 C 6.679688 -18.359375 6.46875 -17.59375 6.34375 -16.78125 C 6.226562 -15.96875 6.171875 -14.660156 6.171875 -12.859375 C 6.171875 -11.148438 6.222656 -9.894531 6.328125 -9.09375 C 6.429688 -8.300781 6.597656 -7.53125 6.828125 -6.78125 C 7.203125 -5.351562 7.984375 -4.195312 9.171875 -3.3125 C 10.367188 -2.425781 11.800781 -1.984375 13.46875 -1.984375 C 15.0625 -1.984375 16.394531 -2.425781 17.46875 -3.3125 C 18.539062 -4.195312 19.265625 -5.351562 19.640625 -6.78125 Z M 19.640625 -6.78125 "/></g></g></g></svg>